<?xml version="1.0" encoding="UTF-8"?>
<svg xmlns="http://www.w3.org/2000/svg" xmlns:xlink="http://www.w3.org/1999/xlink" width="1440pt" height="809.999993pt" viewBox="0 0 1440 809.999993" version="1.2">
<defs>
<filter id="alpha" filterUnits="objectBoundingBox" x="0%" y="0%" width="100%" height="100%">
  <feColorMatrix type="matrix" in="SourceGraphic" values="0 0 0 0 1 0 0 0 0 1 0 0 0 0 1 0 0 0 1 0"/>
</filter>
<mask id="mask0">
  <g filter="url(#alpha)">
<rect x="0" y="0" width="1440" height="809.999993" style="fill:rgb(0%,0%,0%);fill-opacity:0.2;stroke:none;"/>
  </g>
</mask>
<clipPath id="clip2">
  <path d="M 172 0 L 944 0 L 944 716 L 172 716 Z M 172 0 "/>
</clipPath>
<clipPath id="clip3">
  <path d="M -2.285156 384.148438 L 408.550781 -398.019531 L 1219.269531 27.8125 L 808.429688 809.980469 Z M -2.285156 384.148438 "/>
</clipPath>
<clipPath id="clip4">
  <path d="M -2.285156 384.148438 L 408.550781 -398.019531 L 1219.269531 27.8125 L 808.429688 809.980469 Z M -2.285156 384.148438 "/>
</clipPath>
<clipPath id="clip1">
  <rect x="0" y="0" width="944" height="805"/>
</clipPath>
<g id="surface5" clip-path="url(#clip1)">
<g clip-path="url(#clip2)" clip-rule="nonzero">
<g clip-path="url(#clip3)" clip-rule="nonzero">
<g clip-path="url(#clip4)" clip-rule="nonzero">
<path style=" stroke:none;fill-rule:nonzero;fill:rgb(100%,87.059021%,34.899902%);fill-opacity:1;" d="M 789.699219 -185.835938 C 700.792969 -212.90625 606.285156 -205.3125 516.316406 -187.074219 C 436.941406 -170.910156 358.972656 -143.265625 293.28125 -94.917969 C 261.390625 -71.585938 228.671875 -43.523438 208.269531 -9.402344 C 187.953125 24.554688 176.375 63.515625 173.625 102.980469 C 170.621094 142.933594 177.082031 184.140625 192.964844 220.789062 C 210.796875 262.386719 240.8125 296.128906 270 330.261719 C 336.382812 407.691406 384.660156 498.339844 450.703125 576.417969 C 509.066406 645.507812 585.878906 704.652344 678.816406 714.210938 C 767.507812 723.195312 845.6875 676.652344 899.578125 608.675781 C 960.953125 530.785156 990.328125 432.367188 999.3125 334.605469 C 1003.96875 285.605469 1003.640625 236.257812 1001.183594 187.03125 C 998.636719 138.378906 995.683594 89.304688 988.292969 41.207031 C 981.632812 -2.375 968.71875 -44.28125 942.511719 -80.15625 C 917.65625 -114.285156 884.246094 -141.960938 847 -161.9375 C 828.457031 -171.882812 809.132812 -179.554688 789.699219 -185.835938 "/>
</g>
</g>
</g>
</g>
<mask id="mask1">
  <g filter="url(#alpha)">
<rect x="0" y="0" width="1440" height="809.999993" style="fill:rgb(0%,0%,0%);fill-opacity:0.2;stroke:none;"/>
  </g>
</mask>
<clipPath id="clip6">
  <path d="M 63 124 L 542 124 L 542 482 L 63 482 Z M 63 124 "/>
</clipPath>
<clipPath id="clip7">
  <path d="M 305.609375 -1.363281 L 833.761719 297.304688 L 524.386719 844.390625 L -3.765625 545.722656 Z M 305.609375 -1.363281 "/>
</clipPath>
<clipPath id="clip8">
  <path d="M 305.609375 -1.363281 L 833.761719 297.304688 L 524.386719 844.390625 L -3.765625 545.722656 Z M 305.609375 -1.363281 "/>
</clipPath>
<clipPath id="clip5">
  <rect x="0" y="0" width="542" height="482"/>
</clipPath>
<g id="surface8" clip-path="url(#clip5)">
<g clip-path="url(#clip6)" clip-rule="nonzero">
<g clip-path="url(#clip7)" clip-rule="nonzero">
<g clip-path="url(#clip8)" clip-rule="nonzero">
<path style=" stroke:none;fill-rule:nonzero;fill:rgb(100%,87.059021%,34.899902%);fill-opacity:1;" d="M 680.085938 554.253906 C 700.542969 493.839844 697.324219 428.835938 686.707031 366.714844 C 677.289062 311.910156 659.960938 257.824219 628.164062 211.714844 C 612.824219 189.335938 594.253906 166.285156 571.265625 151.554688 C 548.390625 136.886719 521.894531 128.105469 494.867188 125.371094 C 467.507812 122.449219 439.09375 126 413.605469 136.109375 C 384.679688 147.449219 360.886719 167.320312 336.84375 186.613281 C 282.300781 230.492188 219.066406 261.667969 164.085938 305.300781 C 115.4375 343.859375 73.222656 395.289062 64.699219 458.847656 C 56.664062 519.503906 86.957031 574.140625 132.472656 612.578125 C 184.636719 656.355469 251.5625 678.621094 318.472656 686.886719 C 352.003906 691.136719 385.878906 691.96875 419.714844 691.34375 C 453.160156 690.636719 486.902344 689.667969 520.070312 685.628906 C 550.121094 681.996094 579.15625 674.035156 604.332031 656.824219 C 628.28125 640.507812 647.976562 618.179688 662.476562 593.054688 C 669.691406 580.546875 675.363281 567.453125 680.085938 554.253906 "/>
</g>
</g>
</g>
</g>
<mask id="mask2">
  <g filter="url(#alpha)">
<rect x="0" y="0" width="1440" height="809.999993" style="fill:rgb(0%,0%,0%);fill-opacity:0.2;stroke:none;"/>
  </g>
</mask>
<clipPath id="clip10">
  <path d="M 0 0 L 308 0 L 308 370 L 0 370 Z M 0 0 "/>
</clipPath>
<clipPath id="clip11">
  <path d="M -129.15625 -54.105469 L 291.976562 -84.773438 L 323.738281 351.320312 L -97.398438 381.988281 Z M -129.15625 -54.105469 "/>
</clipPath>
<clipPath id="clip12">
  <path d="M -129.15625 -54.105469 L 291.976562 -84.773438 L 323.738281 351.320312 L -97.398438 381.988281 Z M -129.15625 -54.105469 "/>
</clipPath>
<clipPath id="clip9">
  <rect x="0" y="0" width="322" height="380"/>
</clipPath>
<g id="surface11" clip-path="url(#clip9)">
<g clip-path="url(#clip10)" clip-rule="nonzero">
<g clip-path="url(#clip11)" clip-rule="nonzero">
<g clip-path="url(#clip12)" clip-rule="nonzero">
<path style=" stroke:none;fill-rule:nonzero;fill:rgb(100%,87.059021%,34.899902%);fill-opacity:1;" d="M 302.046875 123.273438 C 290.597656 80.398438 263.664062 43.996094 233.558594 12.117188 C 206.96875 -15.988281 176.070312 -40.628906 139.871094 -55.074219 C 122.351562 -62.117188 102.707031 -68.308594 83.710938 -67.976562 C 64.800781 -67.648438 46.066406 -62.519531 29.351562 -53.679688 C 12.378906 -44.824219 -2.714844 -31.8125 -13.582031 -16.132812 C -25.964844 1.585938 -32.082031 22.265625 -38.570312 42.707031 C -53.246094 89.148438 -77.855469 131.582031 -92.878906 178.046875 C -106.191406 219.132812 -110.8125 265.191406 -91.238281 305.28125 C -72.5 343.507812 -33.882812 363.46875 7.304688 368.175781 C 54.40625 373.417969 101.765625 360.507812 143.710938 339.5 C 164.773438 329.03125 184.71875 316.453125 204.078125 303.042969 C 223.183594 289.742188 242.355469 276.171875 260.011719 261.046875 C 276.019531 247.355469 289.769531 231.550781 297.714844 211.878906 C 305.296875 193.195312 308.097656 172.671875 306.804688 152.53125 C 306.164062 142.503906 304.398438 132.734375 302.046875 123.273438 "/>
</g>
</g>
</g>
</g>
<mask id="mask3">
  <g filter="url(#alpha)">
<rect x="0" y="0" width="1440" height="809.999993" style="fill:rgb(0%,0%,0%);fill-opacity:0.2;stroke:none;"/>
  </g>
</mask>
<clipPath id="clip14">
  <path d="M 0 98 L 793 98 L 793 810 L 0 810 Z M 0 98 "/>
</clipPath>
<clipPath id="clip15">
  <path d="M 997.507812 509.515625 L 497.5625 1278.539062 L -299.132812 760.605469 L 200.816406 -8.421875 Z M 997.507812 509.515625 "/>
</clipPath>
<clipPath id="clip16">
  <path d="M 997.507812 509.515625 L 497.5625 1278.539062 L -299.132812 760.605469 L 200.816406 -8.421875 Z M 997.507812 509.515625 "/>
</clipPath>
<clipPath id="clip13">
  <rect x="0" y="0" width="995" height="810"/>
</clipPath>
<g id="surface14" clip-path="url(#clip13)">
<g clip-path="url(#clip14)" clip-rule="nonzero">
<g clip-path="url(#clip15)" clip-rule="nonzero">
<g clip-path="url(#clip16)" clip-rule="nonzero">
<path style=" stroke:none;fill-rule:nonzero;fill:rgb(100%,87.059021%,34.899902%);fill-opacity:1;" d="M 124.160156 1022.652344 C 213.421875 1059.160156 311.8125 1060.382812 406.542969 1050.164062 C 490.121094 1041.078125 573.351562 1019.984375 645.898438 976.316406 C 681.101562 955.257812 717.617188 929.390625 741.988281 896.082031 C 766.257812 862.933594 781.976562 823.773438 788.625 783.246094 C 795.582031 742.242188 792.875 699.03125 779.996094 659.625 C 765.582031 614.921875 737.816406 577.164062 710.945312 539.082031 C 649.816406 452.679688 608.667969 354.351562 547.953125 267.316406 C 494.304688 190.304688 420.636719 121.800781 325.519531 103.003906 C 234.734375 85.207031 149.460938 125.8125 87.21875 190.902344 C 16.292969 265.519531 -23.550781 364.425781 -42.261719 464.613281 C -51.796875 514.8125 -56.21875 565.847656 -58.425781 616.964844 C -60.480469 667.496094 -62.164062 718.5 -59.164062 768.925781 C -56.484375 814.609375 -47.179688 859.164062 -23.554688 898.761719 C -1.164062 936.421875 30.691406 968.230469 67.253906 992.453125 C 85.457031 1004.511719 104.683594 1014.292969 124.160156 1022.652344 "/>
</g>
</g>
</g>
</g>
<mask id="mask4">
  <g filter="url(#alpha)">
<rect x="0" y="0" width="1440" height="809.999993" style="fill:rgb(0%,0%,0%);fill-opacity:0.1373;stroke:none;"/>
  </g>
</mask>
<clipPath id="clip18">
  <path d="M 0 0.441406 L 81 0.441406 L 81 106.761719 L 0 106.761719 Z M 0 0.441406 "/>
</clipPath>
<clipPath id="clip17">
  <rect x="0" y="0" width="82" height="107"/>
</clipPath>
<g id="surface17" clip-path="url(#clip17)">
<g clip-path="url(#clip18)" clip-rule="nonzero">
<path style=" stroke:none;fill-rule:nonzero;fill:rgb(100%,87.059021%,34.899902%);fill-opacity:1;" d="M 27.898438 0.5 C 26.160156 0.5 24.425781 0.585938 22.695312 0.753906 C 20.964844 0.925781 19.246094 1.179688 17.539062 1.519531 C 15.835938 1.859375 14.148438 2.28125 12.484375 2.785156 C 10.820312 3.292969 9.183594 3.875 7.578125 4.542969 C 5.972656 5.207031 4.402344 5.949219 2.867188 6.769531 C 1.335938 7.589844 -0.15625 8.484375 -1.601562 9.449219 C -3.046875 10.414062 -4.441406 11.449219 -5.789062 12.554688 C -7.132812 13.65625 -8.417969 14.824219 -9.648438 16.054688 C -10.878906 17.28125 -12.042969 18.570312 -13.148438 19.914062 C -14.25 21.257812 -15.285156 22.652344 -16.253906 24.097656 C -17.21875 25.546875 -18.113281 27.035156 -18.929688 28.570312 C -19.75 30.101562 -20.492188 31.671875 -21.160156 33.28125 C -21.824219 34.886719 -22.410156 36.523438 -22.914062 38.1875 C -23.417969 39.851562 -23.839844 41.535156 -24.179688 43.242188 C -24.519531 44.945312 -24.773438 46.664062 -24.945312 48.394531 C -25.117188 50.125 -25.203125 51.863281 -25.203125 53.601562 C -25.203125 55.339844 -25.117188 57.074219 -24.945312 58.804688 C -24.773438 60.535156 -24.519531 62.253906 -24.179688 63.960938 C -23.839844 65.664062 -23.417969 67.351562 -22.914062 69.015625 C -22.410156 70.679688 -21.824219 72.316406 -21.160156 73.921875 C -20.492188 75.527344 -19.75 77.097656 -18.929688 78.632812 C -18.113281 80.164062 -17.21875 81.65625 -16.253906 83.101562 C -15.285156 84.546875 -14.25 85.941406 -13.148438 87.289062 C -12.042969 88.632812 -10.878906 89.917969 -9.648438 91.148438 C -8.417969 92.378906 -7.132812 93.542969 -5.789062 94.648438 C -4.441406 95.75 -3.046875 96.785156 -1.601562 97.753906 C -0.15625 98.71875 1.335938 99.613281 2.867188 100.429688 C 4.402344 101.25 5.972656 101.992188 7.578125 102.660156 C 9.183594 103.324219 10.820312 103.910156 12.484375 104.414062 C 14.148438 104.917969 15.835938 105.339844 17.539062 105.679688 C 19.246094 106.019531 20.964844 106.273438 22.695312 106.445312 C 24.425781 106.617188 26.160156 106.703125 27.898438 106.703125 C 29.636719 106.703125 31.375 106.617188 33.105469 106.445312 C 34.835938 106.273438 36.554688 106.019531 38.257812 105.679688 C 39.964844 105.339844 41.648438 104.917969 43.3125 104.414062 C 44.976562 103.910156 46.613281 103.324219 48.21875 102.660156 C 49.828125 101.992188 51.398438 101.25 52.929688 100.429688 C 54.464844 99.613281 55.953125 98.71875 57.402344 97.753906 C 58.847656 96.785156 60.242188 95.75 61.585938 94.648438 C 62.929688 93.542969 64.21875 92.378906 65.445312 91.148438 C 66.675781 89.917969 67.84375 88.632812 68.945312 87.289062 C 70.050781 85.941406 71.085938 84.546875 72.050781 83.101562 C 73.015625 81.65625 73.910156 80.164062 74.730469 78.632812 C 75.550781 77.097656 76.292969 75.527344 76.957031 73.921875 C 77.625 72.316406 78.207031 70.679688 78.714844 69.015625 C 79.21875 67.351562 79.640625 65.664062 79.980469 63.960938 C 80.320312 62.253906 80.574219 60.535156 80.746094 58.804688 C 80.914062 57.074219 81 55.339844 81 53.601562 C 81 51.863281 80.914062 50.125 80.746094 48.394531 C 80.574219 46.664062 80.320312 44.945312 79.980469 43.242188 C 79.640625 41.535156 79.21875 39.851562 78.714844 38.1875 C 78.207031 36.523438 77.625 34.886719 76.957031 33.28125 C 76.292969 31.671875 75.550781 30.101562 74.730469 28.570312 C 73.910156 27.035156 73.015625 25.546875 72.050781 24.097656 C 71.085938 22.652344 70.050781 21.257812 68.945312 19.914062 C 67.84375 18.570312 66.675781 17.28125 65.445312 16.054688 C 64.21875 14.824219 62.929688 13.65625 61.585938 12.554688 C 60.242188 11.449219 58.847656 10.414062 57.402344 9.449219 C 55.953125 8.484375 54.464844 7.589844 52.929688 6.769531 C 51.398438 5.949219 49.828125 5.207031 48.21875 4.542969 C 46.613281 3.875 44.976562 3.292969 43.3125 2.785156 C 41.648438 2.28125 39.964844 1.859375 38.257812 1.519531 C 36.554688 1.179688 34.835938 0.925781 33.105469 0.753906 C 31.375 0.585938 29.636719 0.5 27.898438 0.5 Z M 27.898438 0.5 "/>
</g>
</g>
<mask id="mask5">
  <g filter="url(#alpha)">
<rect x="0" y="0" width="1440" height="809.999993" style="fill:rgb(0%,0%,0%);fill-opacity:0.3882;stroke:none;"/>
  </g>
</mask>
<clipPath id="clip19">
  <rect x="0" y="0" width="46" height="46"/>
</clipPath>
<g id="surface20" clip-path="url(#clip19)">
<path style=" stroke:none;fill-rule:nonzero;fill:rgb(100%,87.059021%,34.899902%);fill-opacity:1;" d="M 22.5 0 C 21.761719 0 21.027344 0.0351562 20.292969 0.109375 C 19.5625 0.179688 18.832031 0.289062 18.109375 0.433594 C 17.386719 0.574219 16.671875 0.753906 15.96875 0.96875 C 15.261719 1.183594 14.570312 1.429688 13.890625 1.710938 C 13.207031 1.996094 12.542969 2.308594 11.894531 2.65625 C 11.242188 3.003906 10.613281 3.382812 10 3.792969 C 9.386719 4.203125 8.796875 4.640625 8.226562 5.105469 C 7.65625 5.574219 7.109375 6.070312 6.589844 6.589844 C 6.070312 7.109375 5.574219 7.65625 5.105469 8.226562 C 4.640625 8.796875 4.203125 9.386719 3.792969 10 C 3.382812 10.613281 3.003906 11.242188 2.65625 11.894531 C 2.308594 12.542969 1.996094 13.207031 1.710938 13.890625 C 1.429688 14.570312 1.183594 15.261719 0.96875 15.96875 C 0.753906 16.671875 0.574219 17.386719 0.433594 18.109375 C 0.289062 18.832031 0.179688 19.5625 0.109375 20.292969 C 0.0351562 21.027344 0 21.761719 0 22.5 C 0 23.238281 0.0351562 23.972656 0.109375 24.707031 C 0.179688 25.4375 0.289062 26.167969 0.433594 26.890625 C 0.574219 27.613281 0.753906 28.328125 0.96875 29.03125 C 1.183594 29.738281 1.429688 30.429688 1.710938 31.109375 C 1.996094 31.792969 2.308594 32.457031 2.65625 33.105469 C 3.003906 33.757812 3.382812 34.386719 3.792969 35 C 4.203125 35.613281 4.640625 36.203125 5.105469 36.773438 C 5.574219 37.34375 6.070312 37.890625 6.589844 38.410156 C 7.109375 38.929688 7.65625 39.425781 8.226562 39.894531 C 8.796875 40.359375 9.386719 40.796875 10 41.207031 C 10.613281 41.617188 11.242188 41.996094 11.894531 42.34375 C 12.542969 42.691406 13.207031 43.003906 13.890625 43.289062 C 14.570312 43.570312 15.261719 43.816406 15.96875 44.03125 C 16.671875 44.246094 17.386719 44.425781 18.109375 44.566406 C 18.832031 44.710938 19.5625 44.820312 20.292969 44.890625 C 21.027344 44.964844 21.761719 45 22.5 45 C 23.238281 45 23.972656 44.964844 24.707031 44.890625 C 25.4375 44.820312 26.167969 44.710938 26.890625 44.566406 C 27.613281 44.425781 28.324219 44.246094 29.03125 44.03125 C 29.738281 43.816406 30.429688 43.570312 31.109375 43.289062 C 31.792969 43.003906 32.457031 42.691406 33.105469 42.34375 C 33.757812 41.996094 34.386719 41.617188 35 41.207031 C 35.613281 40.796875 36.203125 40.359375 36.773438 39.894531 C 37.34375 39.425781 37.890625 38.929688 38.410156 38.410156 C 38.929688 37.890625 39.425781 37.34375 39.894531 36.773438 C 40.359375 36.203125 40.796875 35.613281 41.207031 35 C 41.617188 34.386719 41.996094 33.757812 42.34375 33.105469 C 42.691406 32.457031 43.003906 31.792969 43.289062 31.109375 C 43.570312 30.429688 43.816406 29.738281 44.03125 29.03125 C 44.246094 28.328125 44.425781 27.613281 44.566406 26.890625 C 44.710938 26.167969 44.820312 25.4375 44.890625 24.707031 C 44.964844 23.972656 45 23.238281 45 22.5 C 45 21.761719 44.964844 21.027344 44.890625 20.292969 C 44.820312 19.5625 44.710938 18.832031 44.566406 18.109375 C 44.425781 17.386719 44.246094 16.671875 44.03125 15.96875 C 43.816406 15.261719 43.570312 14.570312 43.289062 13.890625 C 43.003906 13.207031 42.691406 12.542969 42.34375 11.894531 C 41.996094 11.242188 41.617188 10.613281 41.207031 10 C 40.796875 9.386719 40.359375 8.796875 39.894531 8.226562 C 39.425781 7.65625 38.929688 7.109375 38.410156 6.589844 C 37.890625 6.070312 37.34375 5.574219 36.773438 5.105469 C 36.203125 4.640625 35.613281 4.203125 35 3.792969 C 34.386719 3.382812 33.757812 3.003906 33.105469 2.65625 C 32.457031 2.308594 31.792969 1.996094 31.109375 1.710938 C 30.429688 1.429688 29.738281 1.183594 29.03125 0.96875 C 28.324219 0.753906 27.613281 0.574219 26.890625 0.433594 C 26.167969 0.289062 25.4375 0.179688 24.707031 0.109375 C 23.972656 0.0351562 23.238281 0 22.5 0 Z M 22.5 0 "/>
</g>
<mask id="mask6">
  <g filter="url(#alpha)">
<rect x="0" y="0" width="1440" height="809.999993" style="fill:rgb(0%,0%,0%);fill-opacity:0.2863;stroke:none;"/>
  </g>
</mask>
<clipPath id="clip21">
  <path d="M 6 4 L 81 4 L 81 175 L 6 175 Z M 6 4 "/>
</clipPath>
<clipPath id="clip22">
  <path d="M 0 7.886719 L 164.089844 0.621094 L 171.621094 170.703125 L 7.53125 177.96875 Z M 0 7.886719 "/>
</clipPath>
<clipPath id="clip23">
  <path d="M 0 7.886719 L 164.089844 0.621094 L 171.621094 170.703125 L 7.53125 177.96875 Z M 0 7.886719 "/>
</clipPath>
<clipPath id="clip20">
  <rect x="0" y="0" width="81" height="178"/>
</clipPath>
<g id="surface23" clip-path="url(#clip20)">
<g clip-path="url(#clip21)" clip-rule="nonzero">
<g clip-path="url(#clip22)" clip-rule="nonzero">
<g clip-path="url(#clip23)" clip-rule="nonzero">
<path style=" stroke:none;fill-rule:nonzero;fill:rgb(100%,87.059021%,34.899902%);fill-opacity:1;" d="M 165.707031 81.703125 C 161.726562 64.890625 151.65625 50.421875 140.304688 37.679688 C 130.273438 26.445312 118.535156 16.511719 104.617188 10.488281 C 97.882812 7.554688 90.3125 4.925781 82.921875 4.84375 C 75.566406 4.761719 68.222656 6.550781 61.628906 9.804688 C 54.929688 13.066406 48.917969 17.960938 44.519531 23.945312 C 39.507812 30.703125 36.902344 38.683594 34.152344 46.570312 C 27.933594 64.480469 17.898438 80.726562 11.542969 98.644531 C 5.910156 114.488281 3.605469 132.363281 10.773438 148.183594 C 17.636719 163.269531 32.433594 171.46875 48.398438 173.757812 C 66.652344 176.320312 85.210938 171.820312 101.753906 164.109375 C 110.058594 160.265625 117.953125 155.59375 125.628906 150.589844 C 133.203125 145.621094 140.808594 140.554688 147.839844 134.863281 C 154.214844 129.710938 159.738281 123.710938 163.042969 116.144531 C 166.199219 108.957031 167.511719 101 167.234375 93.144531 C 167.09375 89.234375 166.515625 85.414062 165.707031 81.703125 "/>
</g>
</g>
</g>
</g>
</defs>
<g id="surface1">
<rect x="0" y="0" width="1440" height="809.999993" style="fill:rgb(100%,100%,100%);fill-opacity:1;stroke:none;"/>
<rect x="0" y="0" width="1440" height="809.999993" style="fill:rgb(100%,100%,100%);fill-opacity:1;stroke:none;"/>
<rect x="0" y="0" width="1440" height="809.999993" style="fill:rgb(100%,58.428955%,0%);fill-opacity:1;stroke:none;"/>
<use xlink:href="#surface5" transform="matrix(1,0,0,1,496,0.000000000000039746)" mask="url(#mask0)"/>
<use xlink:href="#surface8" transform="matrix(1,0,0,1,898,328)" mask="url(#mask1)"/>
<use xlink:href="#surface11" transform="matrix(1,0,0,1,0,0.000000000000039746)" mask="url(#mask2)"/>
<use xlink:href="#surface14" transform="matrix(1,0,0,1,0,0.000000000000039746)" mask="url(#mask3)"/>
<use xlink:href="#surface17" transform="matrix(1,0,0,1,0,655)" mask="url(#mask4)"/>
<use xlink:href="#surface20" transform="matrix(1,0,0,1,1314,36)" mask="url(#mask5)"/>
<use xlink:href="#surface23" transform="matrix(1,0,0,1,1359,28)" mask="url(#mask6)"/>
</g>
</svg>
