<?xml version="1.0" encoding="UTF-8"?>
<svg xmlns="http://www.w3.org/2000/svg" xmlns:xlink="http://www.w3.org/1999/xlink" width="375pt" height="374.999991pt" viewBox="0 0 375 374.999991" version="1.2">
<g id="surface1">
<path style=" stroke:none;fill-rule:nonzero;fill:rgb(19.999695%,5.488586%,14.509583%);fill-opacity:1;" d="M 50.5 229.085938 C 50.5 229.085938 21.183594 282.800781 68.316406 312.984375 C 97.75 331.832031 296.039062 366.511719 330.148438 296.222656 C 330.148438 296.222656 354.539062 266.089844 332.371094 221.226562 C 310.203125 176.367188 287.984375 162.472656 286.621094 114.109375 C 286.621094 114.109375 301.03125 70.109375 262.910156 46.589844 C 233.839844 28.652344 161.210938 8.671875 118.8125 54.515625 C 118.8125 54.515625 88.125 57.0625 84.5 93.378906 C 80.871094 129.699219 92.8125 176.816406 50.5 229.085938 "/>
<path style=" stroke:none;fill-rule:nonzero;fill:rgb(89.408875%,45.878601%,41.569519%);fill-opacity:1;" d="M 114.296875 188.488281 C 117.867188 201.074219 113.222656 213.417969 103.925781 216.023438 C 94.636719 218.644531 84.207031 210.566406 80.636719 197.980469 C 77.070312 185.386719 81.714844 173.042969 91.007812 170.425781 C 100.304688 167.792969 110.722656 175.875 114.296875 188.488281 "/>
<path style="fill:none;stroke-width:119.044998;stroke-linecap:round;stroke-linejoin:miter;stroke:rgb(73.329163%,28.239441%,28.62854%);stroke-opacity:1;stroke-miterlimit:10;" d="M 5228.975946 10023.655308 C 5228.975946 10023.655308 5618.465094 10711.798826 6153.058043 9838.336857 " transform="matrix(0.0184135,0,0,-0.0183805,-3.721471,377.470492)"/>
<path style="fill:none;stroke-width:115.327003;stroke-linecap:round;stroke-linejoin:miter;stroke:rgb(73.329163%,28.239441%,28.62854%);stroke-opacity:1;stroke-miterlimit:10;" d="M 4838.001818 9838.336857 C 4698.625799 10330.535864 4879.58127 10814.446547 5242.55291 10916.669225 C 5606.160971 11019.316945 6013.469884 10703.723022 6153.058043 10210.036366 " transform="matrix(0.0184135,0,0,-0.0183805,-3.721471,377.470492)"/>
<path style=" stroke:none;fill-rule:nonzero;fill:rgb(89.408875%,45.878601%,41.569519%);fill-opacity:1;" d="M 268.4375 188.488281 C 264.867188 201.074219 269.511719 213.417969 278.804688 216.023438 C 288.097656 218.648438 298.527344 210.566406 302.097656 197.980469 C 305.664062 185.386719 301.023438 173.042969 291.730469 170.429688 C 282.433594 167.796875 272.011719 175.878906 268.4375 188.488281 "/>
<path style="fill:none;stroke-width:119.044998;stroke-linecap:round;stroke-linejoin:miter;stroke:rgb(73.329163%,28.239441%,28.62854%);stroke-opacity:1;stroke-miterlimit:10;" d="M 15961.141523 10023.655308 C 15961.141523 10023.655308 15571.228095 10711.798826 15036.847286 9838.336857 " transform="matrix(0.0184135,0,0,-0.0183805,-3.721471,377.470492)"/>
<path style="fill:none;stroke-width:113.989998;stroke-linecap:round;stroke-linejoin:miter;stroke:rgb(73.329163%,28.239441%,28.62854%);stroke-opacity:1;stroke-miterlimit:10;" d="M 16162.169551 9724.349263 C 16299.933727 10210.646068 16121.070953 10688.960463 15762.296972 10790.000965 C 15402.89393 10891.671658 15000.295423 10579.517424 14862.531247 10091.750175 " transform="matrix(0.018629,0,0,-0.0185956,-3.721471,377.470492)"/>
<path style=" stroke:none;fill-rule:nonzero;fill:rgb(96.469116%,55.288696%,47.839355%);fill-opacity:1;" d="M 109.386719 217.1875 C 109.386719 263.234375 146.78125 300.5625 192.925781 300.5625 C 239.050781 300.5625 276.457031 263.234375 276.457031 217.1875 L 276.457031 156.984375 C 276.457031 110.945312 239.050781 73.597656 192.925781 73.597656 C 146.78125 73.597656 109.386719 110.945312 109.386719 156.984375 L 109.386719 217.1875 "/>
<path style="fill:none;stroke-width:134.535995;stroke-linecap:round;stroke-linejoin:miter;stroke:rgb(73.329163%,28.239441%,28.62854%);stroke-opacity:1;stroke-miterlimit:10;" d="M 10774.317084 8500.516151 L 10760.52798 10357.526052 C 10760.52798 10357.526052 10870.628671 11118.776848 11231.691051 11430.33287 " transform="matrix(0.0184135,0,0,-0.0183805,-3.721471,377.470492)"/>
<path style=" stroke:none;fill-rule:nonzero;fill:rgb(9.408569%,4.708862%,4.708862%);fill-opacity:1;" d="M 133.488281 157.695312 C 133.488281 157.695312 149.234375 146.539062 170.527344 151.246094 C 170.527344 151.246094 148.394531 132.125 133.488281 157.695312 "/>
<path style=" stroke:none;fill-rule:nonzero;fill:rgb(9.408569%,4.708862%,4.708862%);fill-opacity:1;" d="M 252.359375 157.695312 C 252.359375 157.695312 236.847656 150.769531 215.320312 151.246094 C 215.320312 151.246094 236.847656 137.15625 252.359375 157.695312 "/>
<path style=" stroke:none;fill-rule:nonzero;fill:rgb(65.879822%,81.17981%,87.059021%);fill-opacity:1;" d="M 266.316406 221.226562 L 194.671875 202.132812 L 194.417969 202.132812 L 122.777344 221.226562 C 122.777344 221.226562 115.898438 295.097656 194.417969 300.539062 L 194.417969 300.5625 C 194.457031 300.5625 194.503906 300.5625 194.550781 300.5625 C 194.585938 300.5625 194.628906 300.5625 194.671875 300.5625 L 194.671875 300.539062 C 273.203125 295.097656 266.316406 221.226562 266.316406 221.226562 "/>
<path style="fill:none;stroke-width:138.873001;stroke-linecap:round;stroke-linejoin:miter;stroke:rgb(90.979004%,96.859741%,99.21875%);stroke-opacity:1;stroke-miterlimit:10;" d="M 15225.651939 11023.567368 L 13734.519465 8720.263031 " transform="matrix(0.0184135,0,0,-0.0183805,-3.721471,377.470492)"/>
<path style="fill:none;stroke-width:138.873001;stroke-linecap:round;stroke-linejoin:miter;stroke:rgb(90.979004%,96.859741%,99.21875%);stroke-opacity:1;stroke-miterlimit:10;" d="M 15216.105636 8720.263031 L 14205.046116 6208.475436 " transform="matrix(0.0184135,0,0,-0.0183805,-3.721471,377.470492)"/>
<path style="fill:none;stroke-width:138.873001;stroke-linecap:round;stroke-linejoin:miter;stroke:rgb(90.979004%,96.859741%,99.21875%);stroke-opacity:1;stroke-miterlimit:10;" d="M 6142.66318 10936.00865 L 7166.238964 8500.516151 " transform="matrix(0.0184135,0,0,-0.0183805,-3.721471,377.470492)"/>
<path style="fill:none;stroke-width:138.873001;stroke-linecap:round;stroke-linejoin:miter;stroke:rgb(90.979004%,96.859741%,99.21875%);stroke-opacity:1;stroke-miterlimit:10;" d="M 6142.66318 8828.648823 L 7247.064326 6383.380351 " transform="matrix(0.0184135,0,0,-0.0183805,-3.721471,377.470492)"/>
<path style="fill:none;stroke-width:138.873001;stroke-linecap:round;stroke-linejoin:miter;stroke:rgb(59.609985%,79.60968%,86.268616%);stroke-opacity:1;stroke-miterlimit:10;" d="M 10760.52798 9124.903321 L 7247.064326 8169.408183 C 7247.064326 8169.408183 7247.064326 7093.626069 7624.037211 6287.95835 " transform="matrix(0.0184135,0,0,-0.0183805,-3.721471,377.470492)"/>
<path style="fill:none;stroke-width:138.873001;stroke-linecap:round;stroke-linejoin:miter;stroke:rgb(59.609985%,79.60968%,86.268616%);stroke-opacity:1;stroke-miterlimit:10;" d="M 10760.52798 9124.903321 L 14243.655606 8152.831533 C 14243.655606 8152.831533 14192.105572 7012.655507 13815.769108 6208.475436 " transform="matrix(0.0184135,0,0,-0.0183805,-3.721471,377.470492)"/>
<path style=" stroke:none;fill-rule:nonzero;fill:rgb(3.529358%,3.529358%,3.529358%);fill-opacity:1;" d="M 152.011719 180.148438 C 152.011719 185.496094 154.257812 189.828125 157.042969 189.828125 C 159.816406 189.828125 162.066406 185.496094 162.066406 180.148438 C 162.066406 174.777344 159.816406 170.441406 157.042969 170.441406 C 154.257812 170.441406 152.011719 174.777344 152.011719 180.148438 "/>
<path style=" stroke:none;fill-rule:nonzero;fill:rgb(3.529358%,3.529358%,3.529358%);fill-opacity:1;" d="M 221.457031 180.148438 C 221.457031 185.496094 223.707031 189.828125 226.484375 189.828125 C 229.265625 189.828125 231.515625 185.496094 231.515625 180.148438 C 231.515625 174.777344 229.265625 170.441406 226.484375 170.441406 C 223.707031 170.441406 221.457031 174.777344 221.457031 180.148438 "/>
<path style=" stroke:none;fill-rule:nonzero;fill:rgb(19.999695%,5.488586%,14.509583%);fill-opacity:1;" d="M 109.578125 178.730469 C 109.578125 178.730469 170.527344 144.378906 152.011719 95.71875 C 152.011719 95.71875 248.546875 59.523438 266.46875 134.796875 C 266.46875 134.796875 276.460938 168.085938 276.460938 180.132812 C 276.460938 180.132812 291.46875 96.378906 233.839844 66.441406 C 183.113281 40.066406 97.039062 49.277344 109.578125 178.730469 "/>
</g>
</svg>
