<?xml version="1.0" encoding="UTF-8"?>
<svg xmlns="http://www.w3.org/2000/svg" xmlns:xlink="http://www.w3.org/1999/xlink" width="375pt" height="374.999991pt" viewBox="0 0 375 374.999991" version="1.2">
<defs>
<clipPath id="clip1">
  <path d="M 140 35.023438 L 160 35.023438 L 160 54 L 140 54 Z M 140 35.023438 "/>
</clipPath>
<clipPath id="clip2">
  <path d="M 331 137 L 344.414062 137 L 344.414062 151 L 331 151 Z M 331 137 "/>
</clipPath>
<clipPath id="clip3">
  <path d="M 275 176 L 344.414062 176 L 344.414062 330 L 275 330 Z M 275 176 "/>
</clipPath>
<clipPath id="clip4">
  <path d="M 275 176 L 344.414062 176 L 344.414062 323 L 275 323 Z M 275 176 "/>
</clipPath>
<clipPath id="clip5">
  <path d="M 97 268 L 171 268 L 171 340.273438 L 97 340.273438 Z M 97 268 "/>
</clipPath>
</defs>
<g id="surface1">
<g clip-path="url(#clip1)" clip-rule="nonzero">
<path style=" stroke:none;fill-rule:nonzero;fill:rgb(19.219971%,58.81958%,79.219055%);fill-opacity:1;" d="M 159.171875 44.394531 C 159.171875 45.007812 159.109375 45.613281 158.992188 46.214844 C 158.871094 46.816406 158.695312 47.402344 158.457031 47.96875 C 158.222656 48.535156 157.9375 49.074219 157.59375 49.585938 C 157.253906 50.09375 156.867188 50.566406 156.433594 51 C 156 51.433594 155.527344 51.820312 155.015625 52.164062 C 154.507812 52.503906 153.96875 52.792969 153.402344 53.027344 C 152.832031 53.261719 152.25 53.4375 151.648438 53.558594 C 151.046875 53.679688 150.4375 53.738281 149.824219 53.738281 C 149.210938 53.738281 148.601562 53.679688 148 53.558594 C 147.398438 53.4375 146.816406 53.261719 146.246094 53.027344 C 145.679688 52.792969 145.140625 52.503906 144.632812 52.164062 C 144.121094 51.820312 143.648438 51.433594 143.214844 51 C 142.78125 50.566406 142.394531 50.09375 142.054688 49.585938 C 141.710938 49.074219 141.425781 48.535156 141.191406 47.96875 C 140.957031 47.402344 140.777344 46.816406 140.660156 46.214844 C 140.539062 45.613281 140.480469 45.007812 140.480469 44.394531 C 140.480469 43.78125 140.539062 43.171875 140.660156 42.570312 C 140.777344 41.96875 140.957031 41.382812 141.191406 40.816406 C 141.425781 40.25 141.710938 39.710938 142.054688 39.203125 C 142.394531 38.691406 142.78125 38.21875 143.214844 37.785156 C 143.648438 37.351562 144.121094 36.964844 144.632812 36.625 C 145.140625 36.28125 145.679688 35.996094 146.246094 35.757812 C 146.816406 35.523438 147.398438 35.347656 148 35.226562 C 148.601562 35.109375 149.210938 35.046875 149.824219 35.046875 C 150.4375 35.046875 151.046875 35.109375 151.648438 35.226562 C 152.25 35.347656 152.832031 35.523438 153.402344 35.757812 C 153.96875 35.996094 154.507812 36.28125 155.015625 36.625 C 155.527344 36.964844 156 37.351562 156.433594 37.785156 C 156.867188 38.21875 157.253906 38.691406 157.59375 39.203125 C 157.9375 39.710938 158.222656 40.25 158.457031 40.816406 C 158.695312 41.382812 158.871094 41.96875 158.992188 42.570312 C 159.109375 43.171875 159.171875 43.78125 159.171875 44.394531 Z M 159.171875 44.394531 "/>
</g>
<path style=" stroke:none;fill-rule:nonzero;fill:rgb(89.7995%,88.238525%,87.838745%);fill-opacity:1;" d="M 301.84375 48.820312 C 301.84375 49.214844 301.804688 49.601562 301.726562 49.988281 C 301.652344 50.371094 301.539062 50.746094 301.386719 51.109375 C 301.238281 51.472656 301.054688 51.816406 300.835938 52.140625 C 300.617188 52.46875 300.371094 52.769531 300.09375 53.046875 C 299.816406 53.324219 299.511719 53.574219 299.1875 53.789062 C 298.859375 54.007812 298.515625 54.191406 298.152344 54.34375 C 297.789062 54.492188 297.417969 54.605469 297.03125 54.683594 C 296.648438 54.761719 296.257812 54.796875 295.867188 54.796875 C 295.472656 54.796875 295.085938 54.761719 294.699219 54.683594 C 294.316406 54.605469 293.941406 54.492188 293.578125 54.34375 C 293.214844 54.191406 292.871094 54.007812 292.546875 53.789062 C 292.21875 53.574219 291.917969 53.324219 291.640625 53.046875 C 291.363281 52.769531 291.113281 52.46875 290.898438 52.140625 C 290.679688 51.816406 290.496094 51.472656 290.34375 51.109375 C 290.195312 50.746094 290.082031 50.371094 290.003906 49.988281 C 289.925781 49.601562 289.890625 49.214844 289.890625 48.820312 C 289.890625 48.429688 289.925781 48.039062 290.003906 47.65625 C 290.082031 47.269531 290.195312 46.898438 290.34375 46.535156 C 290.496094 46.171875 290.679688 45.828125 290.898438 45.5 C 291.113281 45.175781 291.363281 44.875 291.640625 44.597656 C 291.917969 44.320312 292.21875 44.070312 292.546875 43.851562 C 292.871094 43.632812 293.214844 43.449219 293.578125 43.300781 C 293.941406 43.148438 294.316406 43.035156 294.699219 42.960938 C 295.085938 42.882812 295.472656 42.84375 295.867188 42.84375 C 296.257812 42.84375 296.648438 42.882812 297.03125 42.960938 C 297.417969 43.035156 297.789062 43.148438 298.152344 43.300781 C 298.515625 43.449219 298.859375 43.632812 299.1875 43.851562 C 299.511719 44.070312 299.816406 44.320312 300.09375 44.597656 C 300.371094 44.875 300.617188 45.175781 300.835938 45.5 C 301.054688 45.828125 301.238281 46.171875 301.386719 46.535156 C 301.539062 46.898438 301.652344 47.269531 301.726562 47.65625 C 301.804688 48.039062 301.84375 48.429688 301.84375 48.820312 Z M 301.84375 48.820312 "/>
<path style=" stroke:none;fill-rule:nonzero;fill:rgb(89.7995%,88.238525%,87.838745%);fill-opacity:1;" d="M 151.273438 52.796875 C 151.273438 53.160156 151.238281 53.515625 151.167969 53.867188 C 151.097656 54.21875 150.992188 54.5625 150.855469 54.894531 C 150.71875 55.226562 150.550781 55.542969 150.347656 55.84375 C 150.148438 56.140625 149.921875 56.417969 149.667969 56.671875 C 149.414062 56.925781 149.136719 57.152344 148.839844 57.351562 C 148.539062 57.554688 148.222656 57.722656 147.890625 57.859375 C 147.558594 57.996094 147.214844 58.101562 146.863281 58.171875 C 146.511719 58.242188 146.152344 58.277344 145.792969 58.277344 C 145.433594 58.277344 145.078125 58.242188 144.726562 58.171875 C 144.371094 58.101562 144.03125 57.996094 143.699219 57.859375 C 143.367188 57.722656 143.050781 57.554688 142.75 57.351562 C 142.453125 57.152344 142.175781 56.925781 141.921875 56.671875 C 141.667969 56.417969 141.441406 56.140625 141.238281 55.84375 C 141.039062 55.542969 140.871094 55.226562 140.734375 54.894531 C 140.597656 54.5625 140.492188 54.21875 140.421875 53.867188 C 140.351562 53.515625 140.316406 53.160156 140.316406 52.796875 C 140.316406 52.4375 140.351562 52.082031 140.421875 51.730469 C 140.492188 51.378906 140.597656 51.035156 140.734375 50.703125 C 140.871094 50.371094 141.039062 50.054688 141.238281 49.753906 C 141.441406 49.457031 141.667969 49.179688 141.921875 48.925781 C 142.175781 48.671875 142.453125 48.445312 142.75 48.246094 C 143.050781 48.042969 143.367188 47.875 143.699219 47.738281 C 144.03125 47.601562 144.371094 47.496094 144.726562 47.425781 C 145.078125 47.355469 145.433594 47.320312 145.792969 47.320312 C 146.152344 47.320312 146.511719 47.355469 146.863281 47.425781 C 147.214844 47.496094 147.558594 47.601562 147.890625 47.738281 C 148.222656 47.875 148.539062 48.042969 148.839844 48.246094 C 149.136719 48.445312 149.414062 48.671875 149.667969 48.925781 C 149.921875 49.179688 150.148438 49.457031 150.347656 49.753906 C 150.550781 50.054688 150.71875 50.371094 150.855469 50.703125 C 150.992188 51.035156 151.097656 51.378906 151.167969 51.730469 C 151.238281 52.082031 151.273438 52.4375 151.273438 52.796875 Z M 151.273438 52.796875 "/>
<path style=" stroke:none;fill-rule:nonzero;fill:rgb(89.7995%,88.238525%,87.838745%);fill-opacity:1;" d="M 129.601562 87.421875 C 129.601562 87.78125 129.566406 88.136719 129.496094 88.492188 C 129.425781 88.84375 129.324219 89.1875 129.183594 89.519531 C 129.046875 89.851562 128.878906 90.164062 128.679688 90.464844 C 128.480469 90.765625 128.25 91.039062 127.996094 91.296875 C 127.742188 91.550781 127.464844 91.777344 127.167969 91.976562 C 126.867188 92.175781 126.550781 92.34375 126.21875 92.480469 C 125.886719 92.621094 125.546875 92.722656 125.191406 92.792969 C 124.839844 92.863281 124.484375 92.898438 124.125 92.898438 C 123.765625 92.898438 123.40625 92.863281 123.054688 92.792969 C 122.703125 92.722656 122.359375 92.621094 122.027344 92.480469 C 121.695312 92.34375 121.378906 92.175781 121.082031 91.976562 C 120.78125 91.777344 120.503906 91.550781 120.25 91.296875 C 119.996094 91.039062 119.769531 90.765625 119.570312 90.464844 C 119.367188 90.164062 119.199219 89.851562 119.0625 89.519531 C 118.925781 89.1875 118.820312 88.84375 118.75 88.492188 C 118.679688 88.136719 118.644531 87.78125 118.644531 87.421875 C 118.644531 87.0625 118.679688 86.707031 118.75 86.351562 C 118.820312 86 118.925781 85.65625 119.0625 85.324219 C 119.199219 84.992188 119.367188 84.675781 119.570312 84.378906 C 119.769531 84.078125 119.996094 83.804688 120.25 83.546875 C 120.503906 83.292969 120.78125 83.066406 121.082031 82.867188 C 121.378906 82.667969 121.695312 82.5 122.027344 82.359375 C 122.359375 82.222656 122.703125 82.121094 123.054688 82.050781 C 123.40625 81.980469 123.765625 81.945312 124.125 81.945312 C 124.484375 81.945312 124.839844 81.980469 125.191406 82.050781 C 125.546875 82.121094 125.886719 82.222656 126.21875 82.359375 C 126.550781 82.5 126.867188 82.667969 127.167969 82.867188 C 127.464844 83.066406 127.742188 83.292969 127.996094 83.546875 C 128.25 83.804688 128.480469 84.078125 128.679688 84.378906 C 128.878906 84.675781 129.046875 84.992188 129.183594 85.324219 C 129.324219 85.65625 129.425781 86 129.496094 86.351562 C 129.566406 86.707031 129.601562 87.0625 129.601562 87.421875 Z M 129.601562 87.421875 "/>
<g clip-path="url(#clip2)" clip-rule="nonzero">
<path style=" stroke:none;fill-rule:nonzero;fill:rgb(19.219971%,58.81958%,79.219055%);fill-opacity:1;" d="M 344.664062 143.914062 C 344.664062 144.355469 344.621094 144.792969 344.535156 145.226562 C 344.449219 145.65625 344.320312 146.078125 344.152344 146.484375 C 343.980469 146.894531 343.773438 147.28125 343.53125 147.648438 C 343.285156 148.015625 343.007812 148.355469 342.695312 148.667969 C 342.382812 148.976562 342.042969 149.257812 341.675781 149.503906 C 341.308594 149.746094 340.921875 149.953125 340.511719 150.125 C 340.105469 150.292969 339.683594 150.417969 339.253906 150.503906 C 338.820312 150.59375 338.382812 150.636719 337.941406 150.636719 C 337.5 150.636719 337.0625 150.59375 336.628906 150.503906 C 336.195312 150.417969 335.777344 150.292969 335.367188 150.125 C 334.960938 149.953125 334.574219 149.746094 334.207031 149.503906 C 333.839844 149.257812 333.5 148.976562 333.1875 148.667969 C 332.875 148.355469 332.597656 148.015625 332.351562 147.648438 C 332.105469 147.28125 331.898438 146.894531 331.730469 146.484375 C 331.5625 146.078125 331.433594 145.65625 331.347656 145.226562 C 331.261719 144.792969 331.21875 144.355469 331.21875 143.914062 C 331.21875 143.472656 331.261719 143.035156 331.347656 142.601562 C 331.433594 142.167969 331.5625 141.75 331.730469 141.339844 C 331.898438 140.933594 332.105469 140.546875 332.351562 140.179688 C 332.597656 139.8125 332.875 139.472656 333.1875 139.160156 C 333.5 138.847656 333.839844 138.570312 334.207031 138.324219 C 334.574219 138.078125 334.960938 137.871094 335.367188 137.703125 C 335.777344 137.535156 336.195312 137.40625 336.628906 137.320312 C 337.0625 137.234375 337.5 137.191406 337.941406 137.191406 C 338.382812 137.191406 338.820312 137.234375 339.253906 137.320312 C 339.683594 137.40625 340.105469 137.535156 340.511719 137.703125 C 340.921875 137.871094 341.308594 138.078125 341.675781 138.324219 C 342.042969 138.570312 342.382812 138.847656 342.695312 139.160156 C 343.007812 139.472656 343.285156 139.8125 343.53125 140.179688 C 343.773438 140.546875 343.980469 140.933594 344.152344 141.339844 C 344.320312 141.75 344.449219 142.167969 344.535156 142.601562 C 344.621094 143.035156 344.664062 143.472656 344.664062 143.914062 Z M 344.664062 143.914062 "/>
</g>
<path style=" stroke:none;fill-rule:nonzero;fill:rgb(98.039246%,75.689697%,67.449951%);fill-opacity:1;" d="M 290.46875 201.511719 C 290.496094 205.113281 289.054688 208.371094 286.703125 210.714844 C 284.359375 213.074219 281.101562 214.507812 277.496094 214.480469 L 266.605469 214.402344 L 260.644531 214.359375 C 262.40625 214.375 264.089844 214.734375 265.632812 215.382812 C 270.390625 217.371094 273.765625 222.058594 273.804688 227.511719 C 273.832031 231.117188 272.394531 234.367188 270.039062 236.71875 C 267.695312 239.0625 264.4375 240.503906 260.832031 240.484375 L 240.667969 240.34375 L 199.769531 240.050781 L 192.070312 239.996094 L 131.472656 239.570312 C 127.675781 239.542969 124.042969 238.769531 120.722656 237.386719 C 118.480469 236.457031 116.382812 235.25 114.460938 233.808594 C 107.238281 228.375 98.585938 225.1875 89.597656 225.121094 L 39.230469 224.800781 L 39.230469 152.042969 L 72.71875 151.839844 C 89.453125 151.960938 105.167969 144.824219 116.511719 132.679688 C 126.007812 122.515625 139.578125 116.210938 154.695312 116.320312 L 167.171875 116.40625 L 168.074219 116.414062 L 185.8125 116.53125 L 209.601562 116.699219 C 212.765625 116.726562 215.425781 118.996094 216.039062 121.988281 C 216.125 122.40625 216.179688 122.839844 216.179688 123.28125 C 216.210938 128.027344 214.503906 132.355469 211.644531 135.664062 L 266.058594 136.054688 C 273.277344 136.101562 279.164062 141.992188 279.21875 149.203125 C 279.246094 152.808594 277.804688 156.066406 275.453125 158.410156 C 273.140625 160.71875 269.957031 162.136719 266.417969 162.164062 L 266.417969 162.167969 L 277.128906 162.242188 C 278.859375 162.257812 280.519531 162.601562 282.035156 163.230469 C 282.054688 163.238281 282.082031 163.242188 282.101562 163.257812 C 286.863281 165.246094 290.25 169.941406 290.28125 175.398438 C 290.308594 179 288.867188 182.257812 286.523438 184.597656 C 284.1875 186.929688 280.96875 188.363281 277.390625 188.363281 C 281.515625 188.417969 285.207031 190.382812 287.597656 193.410156 C 289.375 195.648438 290.449219 198.457031 290.46875 201.511719 Z M 290.46875 201.511719 "/>
<path style=" stroke:none;fill-rule:nonzero;fill:rgb(98.429871%,61.569214%,43.139648%);fill-opacity:1;" d="M 302.707031 173.0625 C 302.707031 176.300781 301.480469 179.539062 299.007812 182.003906 L 266.609375 214.402344 L 265.632812 215.382812 L 251.960938 229.054688 L 240.667969 240.34375 L 199.769531 240.050781 L 192.070312 239.996094 L 131.476562 239.570312 C 127.675781 239.542969 124.042969 238.769531 120.726562 237.386719 C 125.660156 228.226562 128.050781 217.792969 127.6875 207.164062 C 127.226562 193.613281 132.167969 179.914062 142.511719 169.574219 L 151.050781 161.035156 L 151.671875 160.417969 L 163.808594 148.28125 L 180.085938 132.007812 C 182.558594 129.539062 186.554688 129.539062 189.027344 132.007812 C 192.277344 135.257812 194.054688 139.417969 194.359375 143.664062 L 216.039062 121.988281 C 216.128906 122.40625 216.179688 122.839844 216.179688 123.28125 C 216.214844 128.027344 214.503906 132.355469 211.648438 135.664062 L 266.0625 136.054688 C 273.277344 136.101562 279.167969 141.992188 279.21875 149.203125 C 279.246094 152.808594 277.804688 156.066406 275.453125 158.410156 C 273.144531 160.71875 269.960938 162.136719 266.421875 162.164062 L 266.421875 162.167969 L 277.128906 162.242188 C 278.859375 162.257812 280.523438 162.601562 282.039062 163.230469 L 281.136719 164.132812 C 281.449219 163.816406 281.769531 163.53125 282.105469 163.257812 C 287.066406 159.21875 294.386719 159.503906 299.007812 164.125 C 301.480469 166.59375 302.714844 169.824219 302.707031 173.0625 Z M 302.707031 173.0625 "/>
<path style=" stroke:none;fill-rule:nonzero;fill:rgb(9.799194%,32.159424%,25.099182%);fill-opacity:1;" d="M 31.058594 149.613281 L 55.984375 149.613281 L 55.984375 227.382812 L 31.058594 227.382812 Z M 31.058594 149.613281 "/>
<path style=" stroke:none;fill-rule:nonzero;fill:rgb(44.309998%,74.508667%,65.489197%);fill-opacity:1;" d="M 47.769531 149.613281 L 56.316406 149.613281 L 56.316406 227.382812 L 47.769531 227.382812 Z M 47.769531 149.613281 "/>
<path style=" stroke:none;fill-rule:nonzero;fill:rgb(98.81897%,89.408875%,54.899597%);fill-opacity:1;" d="M 42.757812 220.085938 C 42.757812 220.554688 42.667969 221.003906 42.488281 221.4375 C 42.3125 221.867188 42.054688 222.25 41.726562 222.582031 C 41.394531 222.910156 41.011719 223.164062 40.582031 223.34375 C 40.148438 223.523438 39.699219 223.613281 39.230469 223.613281 C 38.765625 223.613281 38.3125 223.523438 37.882812 223.34375 C 37.449219 223.164062 37.070312 222.910156 36.738281 222.582031 C 36.40625 222.25 36.152344 221.867188 35.972656 221.4375 C 35.792969 221.003906 35.707031 220.554688 35.707031 220.085938 C 35.707031 219.621094 35.792969 219.167969 35.972656 218.738281 C 36.152344 218.304688 36.40625 217.925781 36.738281 217.59375 C 37.070312 217.261719 37.449219 217.007812 37.882812 216.828125 C 38.3125 216.648438 38.765625 216.5625 39.230469 216.5625 C 39.699219 216.5625 40.148438 216.648438 40.582031 216.828125 C 41.011719 217.007812 41.394531 217.261719 41.726562 217.59375 C 42.054688 217.925781 42.3125 218.304688 42.488281 218.738281 C 42.667969 219.167969 42.757812 219.621094 42.757812 220.085938 Z M 42.757812 220.085938 "/>
<g clip-path="url(#clip3)" clip-rule="nonzero">
<path style=" stroke:none;fill-rule:nonzero;fill:rgb(19.219971%,58.81958%,79.219055%);fill-opacity:1;" d="M 344.664062 199.140625 C 344.664062 211.464844 334.667969 221.457031 322.34375 221.457031 L 322.34375 320.96875 C 322.34375 325.941406 318.316406 329.96875 313.347656 329.96875 C 310.863281 329.96875 308.609375 328.960938 306.988281 327.332031 C 305.359375 325.707031 304.347656 323.453125 304.347656 320.96875 L 304.347656 265.253906 C 304.347656 261.394531 301.226562 258.269531 297.367188 258.269531 C 295.441406 258.269531 293.695312 259.050781 292.433594 260.3125 C 291.167969 261.582031 290.386719 263.324219 290.386719 265.253906 L 290.386719 293.699219 C 290.386719 297.550781 287.257812 300.675781 283.40625 300.675781 L 282.121094 300.675781 C 278.269531 300.675781 275.140625 297.550781 275.140625 293.699219 L 275.140625 177.011719 L 322.34375 176.824219 C 333.386719 176.824219 342.558594 184.847656 344.339844 195.382812 C 344.554688 196.605469 344.664062 197.859375 344.664062 199.140625 Z M 344.664062 199.140625 "/>
</g>
<g clip-path="url(#clip4)" clip-rule="nonzero">
<path style=" stroke:none;fill-rule:nonzero;fill:rgb(36.079407%,70.588684%,88.62915%);fill-opacity:1;" d="M 344.34375 195.382812 C 342.558594 205.910156 333.386719 213.933594 322.34375 213.933594 L 322.34375 313.449219 C 322.34375 318.417969 318.316406 322.445312 313.351562 322.445312 C 310.867188 322.445312 308.609375 321.433594 306.988281 319.808594 C 305.359375 318.183594 304.351562 315.933594 304.351562 313.449219 L 304.351562 257.726562 C 304.351562 253.867188 301.226562 250.746094 297.367188 250.746094 C 295.445312 250.746094 293.695312 251.527344 292.433594 252.789062 C 291.167969 254.050781 290.390625 255.796875 290.390625 257.726562 L 290.390625 286.171875 C 290.390625 290.03125 287.257812 293.15625 283.40625 293.15625 L 282.125 293.15625 C 278.269531 293.15625 275.140625 290.03125 275.140625 286.171875 L 275.140625 177.007812 L 322.34375 176.824219 C 333.386719 176.824219 342.558594 184.847656 344.34375 195.382812 Z M 344.34375 195.382812 "/>
</g>
<path style=" stroke:none;fill-rule:nonzero;fill:rgb(100%,100%,100%);fill-opacity:1;" d="M 300.09375 230 C 300.09375 230.277344 300.066406 230.554688 300.011719 230.824219 C 299.957031 231.097656 299.878906 231.363281 299.773438 231.617188 C 299.667969 231.875 299.535156 232.117188 299.382812 232.347656 C 299.226562 232.582031 299.050781 232.792969 298.855469 232.988281 C 298.660156 233.1875 298.445312 233.363281 298.214844 233.515625 C 297.984375 233.671875 297.742188 233.800781 297.484375 233.90625 C 297.226562 234.011719 296.964844 234.09375 296.691406 234.148438 C 296.417969 234.203125 296.144531 234.226562 295.867188 234.226562 C 295.589844 234.226562 295.3125 234.203125 295.042969 234.148438 C 294.769531 234.09375 294.503906 234.011719 294.246094 233.90625 C 293.992188 233.800781 293.746094 233.671875 293.515625 233.515625 C 293.285156 233.363281 293.074219 233.1875 292.875 232.988281 C 292.679688 232.792969 292.503906 232.582031 292.351562 232.347656 C 292.195312 232.117188 292.066406 231.875 291.960938 231.617188 C 291.851562 231.363281 291.773438 231.097656 291.71875 230.824219 C 291.664062 230.554688 291.636719 230.277344 291.636719 230 C 291.636719 229.722656 291.664062 229.449219 291.71875 229.175781 C 291.773438 228.902344 291.851562 228.640625 291.960938 228.382812 C 292.066406 228.125 292.195312 227.882812 292.351562 227.652344 C 292.503906 227.421875 292.679688 227.207031 292.875 227.011719 C 293.074219 226.816406 293.285156 226.640625 293.515625 226.484375 C 293.746094 226.332031 293.992188 226.199219 294.246094 226.09375 C 294.503906 225.988281 294.769531 225.90625 295.042969 225.855469 C 295.3125 225.800781 295.589844 225.773438 295.867188 225.773438 C 296.144531 225.773438 296.417969 225.800781 296.691406 225.855469 C 296.964844 225.90625 297.226562 225.988281 297.484375 226.09375 C 297.742188 226.199219 297.984375 226.332031 298.214844 226.484375 C 298.445312 226.640625 298.660156 226.816406 298.855469 227.011719 C 299.050781 227.207031 299.226562 227.421875 299.382812 227.652344 C 299.535156 227.882812 299.667969 228.125 299.773438 228.382812 C 299.878906 228.640625 299.957031 228.902344 300.011719 229.175781 C 300.066406 229.449219 300.09375 229.722656 300.09375 230 Z M 300.09375 230 "/>
<path style=" stroke:none;fill-rule:nonzero;fill:rgb(65.098572%,87.838745%,96.469116%);fill-opacity:1;" d="M 301.625 72.988281 C 292.238281 69.707031 282.433594 70.335938 273.984375 74.019531 L 273.851562 73.859375 C 275.914062 68.558594 275.496094 62.53125 272.644531 57.550781 C 271.757812 55.988281 270.621094 54.523438 269.25 53.210938 C 261.648438 45.984375 249.628906 46.296875 242.410156 53.886719 C 239.097656 57.371094 237.375 61.773438 237.199219 66.226562 C 229.683594 54.25 216.40625 46.246094 201.21875 46.152344 C 177.59375 46.007812 158.328125 65.039062 158.179688 88.65625 C 158.148438 94.039062 159.109375 99.191406 160.894531 103.941406 C 159.992188 104.179688 159.085938 104.4375 158.1875 104.746094 C 139.351562 111.203125 129.316406 131.703125 135.773438 150.539062 C 138.617188 158.839844 144.191406 165.4375 151.148438 169.664062 C 151.148438 169.664062 164.773438 179.425781 179.460938 176.4375 L 311.179688 177.007812 L 311.179688 139.503906 C 317.308594 135.128906 322.195312 128.886719 324.871094 121.242188 C 331.773438 101.5 321.371094 79.890625 301.625 72.988281 Z M 301.625 72.988281 "/>
<path style=" stroke:none;fill-rule:nonzero;fill:rgb(36.079407%,70.588684%,88.62915%);fill-opacity:1;" d="M 302.90625 78.242188 C 293.996094 75.125 284.683594 75.722656 276.660156 79.21875 L 276.535156 79.066406 C 278.496094 74.035156 278.097656 68.3125 275.390625 63.582031 C 274.546875 62.101562 273.46875 60.707031 272.167969 59.464844 C 264.949219 52.601562 253.539062 52.898438 246.679688 60.101562 C 243.535156 63.410156 241.898438 67.59375 241.734375 71.820312 C 234.597656 60.453125 221.988281 52.851562 207.570312 52.761719 C 185.140625 52.625 166.84375 70.691406 166.707031 93.121094 C 166.671875 98.226562 167.589844 103.121094 169.28125 107.632812 C 168.425781 107.855469 167.566406 108.101562 166.714844 108.394531 C 148.828125 114.527344 139.296875 133.992188 145.429688 151.878906 C 148.128906 159.757812 153.421875 166.023438 160.027344 170.035156 C 160.027344 170.035156 172.964844 179.304688 186.910156 176.46875 L 311.980469 177.007812 L 311.980469 141.398438 C 317.796875 137.246094 322.4375 131.320312 324.976562 124.058594 C 331.53125 105.3125 321.65625 84.792969 302.90625 78.242188 Z M 302.90625 78.242188 "/>
<path style=" stroke:none;fill-rule:nonzero;fill:rgb(95.289612%,95.289612%,95.289612%);fill-opacity:1;" d="M 198.632812 104.601562 C 198.632812 105.339844 198.5625 106.070312 198.417969 106.792969 C 198.273438 107.519531 198.0625 108.222656 197.777344 108.902344 C 197.496094 109.585938 197.152344 110.230469 196.742188 110.84375 C 196.332031 111.457031 195.863281 112.027344 195.34375 112.546875 C 194.820312 113.070312 194.253906 113.535156 193.640625 113.945312 C 193.027344 114.355469 192.378906 114.703125 191.699219 114.984375 C 191.015625 115.265625 190.3125 115.480469 189.589844 115.625 C 188.867188 115.765625 188.136719 115.839844 187.398438 115.839844 C 186.660156 115.839844 185.929688 115.765625 185.203125 115.625 C 184.480469 115.480469 183.777344 115.265625 183.097656 114.984375 C 182.414062 114.703125 181.769531 114.355469 181.152344 113.945312 C 180.539062 113.535156 179.972656 113.070312 179.453125 112.546875 C 178.929688 112.027344 178.464844 111.457031 178.054688 110.84375 C 177.644531 110.230469 177.296875 109.585938 177.015625 108.902344 C 176.734375 108.222656 176.519531 107.519531 176.375 106.792969 C 176.230469 106.070312 176.160156 105.339844 176.160156 104.601562 C 176.160156 103.863281 176.230469 103.132812 176.375 102.410156 C 176.519531 101.6875 176.734375 100.984375 177.015625 100.304688 C 177.296875 99.621094 177.644531 98.972656 178.054688 98.359375 C 178.464844 97.746094 178.929688 97.179688 179.453125 96.65625 C 179.972656 96.136719 180.539062 95.671875 181.152344 95.261719 C 181.769531 94.851562 182.414062 94.503906 183.097656 94.222656 C 183.777344 93.941406 184.480469 93.726562 185.203125 93.582031 C 185.929688 93.4375 186.660156 93.367188 187.398438 93.367188 C 188.136719 93.367188 188.867188 93.4375 189.589844 93.582031 C 190.3125 93.726562 191.015625 93.941406 191.699219 94.222656 C 192.378906 94.503906 193.027344 94.851562 193.640625 95.261719 C 194.253906 95.671875 194.820312 96.136719 195.34375 96.65625 C 195.863281 97.179688 196.332031 97.746094 196.742188 98.359375 C 197.152344 98.972656 197.496094 99.621094 197.777344 100.304688 C 198.0625 100.984375 198.273438 101.6875 198.417969 102.410156 C 198.5625 103.132812 198.632812 103.863281 198.632812 104.601562 Z M 198.632812 104.601562 "/>
<path style=" stroke:none;fill-rule:nonzero;fill:rgb(65.098572%,87.838745%,96.469116%);fill-opacity:1;" d="M 189.441406 115.890625 C 189.441406 116.253906 189.40625 116.613281 189.335938 116.972656 C 189.265625 117.328125 189.160156 117.671875 189.023438 118.007812 C 188.882812 118.34375 188.710938 118.664062 188.511719 118.964844 C 188.308594 119.265625 188.078125 119.546875 187.824219 119.800781 C 187.566406 120.058594 187.285156 120.289062 186.984375 120.488281 C 186.683594 120.691406 186.363281 120.863281 186.027344 121 C 185.695312 121.140625 185.347656 121.246094 184.992188 121.316406 C 184.636719 121.386719 184.277344 121.421875 183.914062 121.421875 C 183.550781 121.421875 183.191406 121.386719 182.832031 121.316406 C 182.476562 121.246094 182.132812 121.140625 181.796875 121 C 181.460938 120.863281 181.140625 120.691406 180.839844 120.488281 C 180.539062 120.289062 180.257812 120.058594 180.003906 119.800781 C 179.746094 119.546875 179.515625 119.265625 179.316406 118.964844 C 179.113281 118.664062 178.941406 118.34375 178.804688 118.007812 C 178.664062 117.671875 178.558594 117.328125 178.488281 116.972656 C 178.417969 116.613281 178.382812 116.253906 178.382812 115.890625 C 178.382812 115.527344 178.417969 115.167969 178.488281 114.8125 C 178.558594 114.457031 178.664062 114.113281 178.804688 113.777344 C 178.941406 113.441406 179.113281 113.121094 179.316406 112.820312 C 179.515625 112.519531 179.746094 112.238281 180.003906 111.980469 C 180.257812 111.726562 180.539062 111.496094 180.839844 111.292969 C 181.140625 111.09375 181.460938 110.921875 181.796875 110.785156 C 182.132812 110.644531 182.476562 110.539062 182.832031 110.46875 C 183.191406 110.398438 183.550781 110.363281 183.914062 110.363281 C 184.277344 110.363281 184.636719 110.398438 184.992188 110.46875 C 185.347656 110.539062 185.695312 110.644531 186.027344 110.785156 C 186.363281 110.921875 186.683594 111.09375 186.984375 111.292969 C 187.285156 111.496094 187.566406 111.726562 187.824219 111.980469 C 188.078125 112.238281 188.308594 112.519531 188.511719 112.820312 C 188.710938 113.121094 188.882812 113.441406 189.023438 113.777344 C 189.160156 114.113281 189.265625 114.457031 189.335938 114.8125 C 189.40625 115.167969 189.441406 115.527344 189.441406 115.890625 Z M 189.441406 115.890625 "/>
<path style=" stroke:none;fill-rule:nonzero;fill:rgb(95.289612%,95.289612%,95.289612%);fill-opacity:1;" d="M 208.453125 71.609375 C 208.453125 71.886719 208.425781 72.164062 208.371094 72.433594 C 208.316406 72.707031 208.234375 72.972656 208.128906 73.230469 C 208.023438 73.484375 207.894531 73.730469 207.738281 73.960938 C 207.585938 74.191406 207.410156 74.402344 207.214844 74.601562 C 207.015625 74.796875 206.804688 74.972656 206.574219 75.125 C 206.339844 75.28125 206.097656 75.410156 205.839844 75.515625 C 205.585938 75.621094 205.320312 75.703125 205.046875 75.757812 C 204.777344 75.8125 204.5 75.839844 204.222656 75.839844 C 203.945312 75.839844 203.671875 75.8125 203.398438 75.757812 C 203.125 75.703125 202.863281 75.621094 202.605469 75.515625 C 202.347656 75.410156 202.105469 75.28125 201.875 75.125 C 201.644531 74.972656 201.429688 74.796875 201.234375 74.601562 C 201.039062 74.402344 200.863281 74.191406 200.707031 73.960938 C 200.554688 73.730469 200.421875 73.484375 200.316406 73.230469 C 200.210938 72.972656 200.128906 72.707031 200.078125 72.433594 C 200.023438 72.164062 199.996094 71.886719 199.996094 71.609375 C 199.996094 71.332031 200.023438 71.058594 200.078125 70.785156 C 200.128906 70.511719 200.210938 70.25 200.316406 69.992188 C 200.421875 69.734375 200.554688 69.492188 200.707031 69.261719 C 200.863281 69.03125 201.039062 68.816406 201.234375 68.621094 C 201.429688 68.425781 201.644531 68.25 201.875 68.09375 C 202.105469 67.941406 202.347656 67.8125 202.605469 67.703125 C 202.863281 67.597656 203.125 67.519531 203.398438 67.464844 C 203.671875 67.410156 203.945312 67.382812 204.222656 67.382812 C 204.5 67.382812 204.777344 67.410156 205.046875 67.464844 C 205.320312 67.519531 205.585938 67.597656 205.839844 67.703125 C 206.097656 67.8125 206.339844 67.941406 206.574219 68.09375 C 206.804688 68.25 207.015625 68.425781 207.214844 68.621094 C 207.410156 68.816406 207.585938 69.03125 207.738281 69.261719 C 207.894531 69.492188 208.023438 69.734375 208.128906 69.992188 C 208.234375 70.25 208.316406 70.511719 208.371094 70.785156 C 208.425781 71.058594 208.453125 71.332031 208.453125 71.609375 Z M 208.453125 71.609375 "/>
<path style=" stroke:none;fill-rule:nonzero;fill:rgb(19.219971%,58.81958%,79.219055%);fill-opacity:1;" d="M 234.984375 106.988281 C 234.984375 107.265625 234.957031 107.539062 234.902344 107.8125 C 234.847656 108.085938 234.769531 108.347656 234.660156 108.605469 C 234.554688 108.863281 234.425781 109.105469 234.269531 109.335938 C 234.117188 109.566406 233.941406 109.78125 233.746094 109.976562 C 233.546875 110.171875 233.335938 110.347656 233.105469 110.503906 C 232.875 110.65625 232.628906 110.789062 232.375 110.894531 C 232.117188 111 231.851562 111.078125 231.582031 111.132812 C 231.308594 111.1875 231.03125 111.214844 230.753906 111.214844 C 230.476562 111.214844 230.203125 111.1875 229.929688 111.132812 C 229.65625 111.078125 229.394531 111 229.136719 110.894531 C 228.878906 110.789062 228.636719 110.65625 228.40625 110.503906 C 228.175781 110.347656 227.960938 110.171875 227.765625 109.976562 C 227.570312 109.78125 227.394531 109.566406 227.238281 109.335938 C 227.085938 109.105469 226.957031 108.863281 226.847656 108.605469 C 226.742188 108.347656 226.664062 108.085938 226.609375 107.8125 C 226.554688 107.539062 226.527344 107.265625 226.527344 106.988281 C 226.527344 106.710938 226.554688 106.433594 226.609375 106.164062 C 226.664062 105.890625 226.742188 105.625 226.847656 105.371094 C 226.957031 105.113281 227.085938 104.871094 227.238281 104.636719 C 227.394531 104.40625 227.570312 104.195312 227.765625 103.996094 C 227.960938 103.800781 228.175781 103.625 228.40625 103.472656 C 228.636719 103.316406 228.878906 103.1875 229.136719 103.082031 C 229.394531 102.976562 229.65625 102.894531 229.929688 102.839844 C 230.203125 102.785156 230.476562 102.757812 230.753906 102.757812 C 231.03125 102.757812 231.308594 102.785156 231.582031 102.839844 C 231.851562 102.894531 232.117188 102.976562 232.375 103.082031 C 232.628906 103.1875 232.875 103.316406 233.105469 103.472656 C 233.335938 103.625 233.546875 103.800781 233.746094 103.996094 C 233.941406 104.195312 234.117188 104.40625 234.269531 104.636719 C 234.425781 104.871094 234.554688 105.113281 234.660156 105.371094 C 234.769531 105.625 234.847656 105.890625 234.902344 106.164062 C 234.957031 106.433594 234.984375 106.710938 234.984375 106.988281 Z M 234.984375 106.988281 "/>
<path style=" stroke:none;fill-rule:nonzero;fill:rgb(95.289612%,95.289612%,95.289612%);fill-opacity:1;" d="M 314.128906 118.835938 C 314.128906 119.113281 314.101562 119.386719 314.050781 119.660156 C 313.996094 119.929688 313.914062 120.195312 313.808594 120.453125 C 313.703125 120.707031 313.570312 120.953125 313.417969 121.183594 C 313.261719 121.414062 313.089844 121.628906 312.890625 121.824219 C 312.695312 122.019531 312.480469 122.195312 312.25 122.351562 C 312.019531 122.503906 311.777344 122.632812 311.519531 122.742188 C 311.265625 122.847656 311 122.925781 310.726562 122.980469 C 310.453125 123.035156 310.179688 123.0625 309.902344 123.0625 C 309.625 123.0625 309.347656 123.035156 309.078125 122.980469 C 308.804688 122.925781 308.539062 122.847656 308.285156 122.742188 C 308.027344 122.632812 307.785156 122.503906 307.554688 122.351562 C 307.320312 122.195312 307.109375 122.019531 306.914062 121.824219 C 306.714844 121.628906 306.539062 121.414062 306.386719 121.183594 C 306.230469 120.953125 306.101562 120.707031 305.996094 120.453125 C 305.890625 120.195312 305.808594 119.929688 305.753906 119.660156 C 305.699219 119.386719 305.675781 119.113281 305.675781 118.835938 C 305.675781 118.558594 305.699219 118.28125 305.753906 118.007812 C 305.808594 117.738281 305.890625 117.472656 305.996094 117.214844 C 306.101562 116.960938 306.230469 116.714844 306.386719 116.484375 C 306.539062 116.253906 306.714844 116.042969 306.914062 115.84375 C 307.109375 115.648438 307.320312 115.472656 307.554688 115.320312 C 307.785156 115.164062 308.027344 115.035156 308.285156 114.929688 C 308.539062 114.820312 308.804688 114.742188 309.078125 114.6875 C 309.347656 114.632812 309.625 114.605469 309.902344 114.605469 C 310.179688 114.605469 310.453125 114.632812 310.726562 114.6875 C 311 114.742188 311.265625 114.820312 311.519531 114.929688 C 311.777344 115.035156 312.019531 115.164062 312.25 115.320312 C 312.480469 115.472656 312.695312 115.648438 312.890625 115.84375 C 313.089844 116.042969 313.261719 116.253906 313.417969 116.484375 C 313.570312 116.714844 313.703125 116.960938 313.808594 117.214844 C 313.914062 117.472656 313.996094 117.738281 314.050781 118.007812 C 314.101562 118.28125 314.128906 118.558594 314.128906 118.835938 Z M 314.128906 118.835938 "/>
<path style=" stroke:none;fill-rule:nonzero;fill:rgb(19.219971%,58.81958%,79.219055%);fill-opacity:1;" d="M 171.097656 146.539062 C 171.097656 146.816406 171.070312 147.089844 171.015625 147.363281 C 170.964844 147.632812 170.882812 147.898438 170.777344 148.15625 C 170.671875 148.410156 170.539062 148.65625 170.386719 148.886719 C 170.230469 149.117188 170.054688 149.332031 169.859375 149.527344 C 169.664062 149.722656 169.449219 149.898438 169.21875 150.050781 C 168.988281 150.207031 168.746094 150.335938 168.488281 150.441406 C 168.230469 150.550781 167.96875 150.628906 167.695312 150.683594 C 167.421875 150.738281 167.148438 150.765625 166.871094 150.765625 C 166.59375 150.765625 166.316406 150.738281 166.046875 150.683594 C 165.773438 150.628906 165.507812 150.550781 165.253906 150.441406 C 164.996094 150.335938 164.753906 150.207031 164.519531 150.050781 C 164.289062 149.898438 164.078125 149.722656 163.878906 149.527344 C 163.683594 149.332031 163.507812 149.117188 163.355469 148.886719 C 163.199219 148.65625 163.070312 148.410156 162.964844 148.15625 C 162.859375 147.898438 162.777344 147.632812 162.722656 147.363281 C 162.667969 147.089844 162.640625 146.816406 162.640625 146.539062 C 162.640625 146.257812 162.667969 145.984375 162.722656 145.710938 C 162.777344 145.441406 162.859375 145.175781 162.964844 144.917969 C 163.070312 144.664062 163.199219 144.417969 163.355469 144.1875 C 163.507812 143.957031 163.683594 143.742188 163.878906 143.546875 C 164.078125 143.351562 164.289062 143.175781 164.519531 143.023438 C 164.753906 142.867188 164.996094 142.738281 165.253906 142.632812 C 165.507812 142.523438 165.773438 142.445312 166.046875 142.390625 C 166.316406 142.335938 166.59375 142.308594 166.871094 142.308594 C 167.148438 142.308594 167.421875 142.335938 167.695312 142.390625 C 167.96875 142.445312 168.230469 142.523438 168.488281 142.632812 C 168.746094 142.738281 168.988281 142.867188 169.21875 143.023438 C 169.449219 143.175781 169.664062 143.351562 169.859375 143.546875 C 170.054688 143.742188 170.230469 143.957031 170.386719 144.1875 C 170.539062 144.417969 170.671875 144.664062 170.777344 144.917969 C 170.882812 145.175781 170.964844 145.441406 171.015625 145.710938 C 171.070312 145.984375 171.097656 146.257812 171.097656 146.539062 Z M 171.097656 146.539062 "/>
<path style=" stroke:none;fill-rule:nonzero;fill:rgb(19.219971%,58.81958%,79.219055%);fill-opacity:1;" d="M 278.644531 92.953125 C 278.644531 93.316406 278.609375 93.675781 278.535156 94.03125 C 278.464844 94.386719 278.359375 94.730469 278.222656 95.066406 C 278.082031 95.402344 277.914062 95.722656 277.710938 96.023438 C 277.507812 96.324219 277.28125 96.605469 277.023438 96.863281 C 276.765625 97.117188 276.488281 97.347656 276.1875 97.550781 C 275.882812 97.75 275.566406 97.921875 275.230469 98.058594 C 274.894531 98.199219 274.546875 98.304688 274.191406 98.375 C 273.835938 98.445312 273.476562 98.480469 273.113281 98.480469 C 272.75 98.480469 272.390625 98.445312 272.035156 98.375 C 271.679688 98.304688 271.332031 98.199219 270.996094 98.058594 C 270.660156 97.921875 270.34375 97.75 270.039062 97.550781 C 269.738281 97.347656 269.460938 97.117188 269.203125 96.863281 C 268.945312 96.605469 268.714844 96.324219 268.515625 96.023438 C 268.3125 95.722656 268.144531 95.402344 268.003906 95.066406 C 267.863281 94.730469 267.761719 94.386719 267.6875 94.03125 C 267.617188 93.675781 267.582031 93.316406 267.582031 92.953125 C 267.582031 92.589844 267.617188 92.230469 267.6875 91.871094 C 267.761719 91.515625 267.863281 91.171875 268.003906 90.835938 C 268.144531 90.5 268.3125 90.179688 268.515625 89.878906 C 268.714844 89.578125 268.945312 89.296875 269.203125 89.042969 C 269.460938 88.785156 269.738281 88.554688 270.039062 88.355469 C 270.34375 88.152344 270.660156 87.980469 270.996094 87.84375 C 271.332031 87.703125 271.679688 87.597656 272.035156 87.527344 C 272.390625 87.457031 272.75 87.421875 273.113281 87.421875 C 273.476562 87.421875 273.835938 87.457031 274.191406 87.527344 C 274.546875 87.597656 274.894531 87.703125 275.230469 87.84375 C 275.566406 87.980469 275.882812 88.152344 276.1875 88.355469 C 276.488281 88.554688 276.765625 88.785156 277.023438 89.042969 C 277.28125 89.296875 277.507812 89.578125 277.710938 89.878906 C 277.914062 90.179688 278.082031 90.5 278.222656 90.835938 C 278.359375 91.171875 278.464844 91.515625 278.535156 91.871094 C 278.609375 92.230469 278.644531 92.589844 278.644531 92.953125 Z M 278.644531 92.953125 "/>
<path style=" stroke:none;fill-rule:nonzero;fill:rgb(95.289612%,95.289612%,95.289612%);fill-opacity:1;" d="M 294.519531 95.75 C 294.519531 96.488281 294.445312 97.21875 294.300781 97.941406 C 294.160156 98.667969 293.945312 99.371094 293.664062 100.050781 C 293.378906 100.734375 293.035156 101.378906 292.625 101.992188 C 292.214844 102.605469 291.75 103.175781 291.226562 103.695312 C 290.703125 104.21875 290.136719 104.683594 289.523438 105.09375 C 288.910156 105.503906 288.261719 105.851562 287.582031 106.132812 C 286.898438 106.414062 286.195312 106.628906 285.472656 106.773438 C 284.75 106.914062 284.019531 106.988281 283.28125 106.988281 C 282.542969 106.988281 281.8125 106.914062 281.089844 106.773438 C 280.363281 106.628906 279.664062 106.414062 278.980469 106.132812 C 278.300781 105.851562 277.652344 105.503906 277.039062 105.09375 C 276.425781 104.683594 275.855469 104.21875 275.335938 103.695312 C 274.8125 103.175781 274.347656 102.605469 273.9375 101.992188 C 273.527344 101.378906 273.179688 100.734375 272.898438 100.050781 C 272.617188 99.371094 272.402344 98.667969 272.257812 97.941406 C 272.117188 97.21875 272.042969 96.488281 272.042969 95.75 C 272.042969 95.011719 272.117188 94.28125 272.257812 93.558594 C 272.402344 92.835938 272.617188 92.132812 272.898438 91.453125 C 273.179688 90.769531 273.527344 90.121094 273.9375 89.507812 C 274.347656 88.894531 274.8125 88.328125 275.335938 87.804688 C 275.855469 87.285156 276.425781 86.820312 277.039062 86.410156 C 277.652344 86 278.300781 85.652344 278.980469 85.371094 C 279.664062 85.089844 280.363281 84.875 281.089844 84.730469 C 281.8125 84.585938 282.542969 84.515625 283.28125 84.515625 C 284.019531 84.515625 284.75 84.585938 285.472656 84.730469 C 286.195312 84.875 286.898438 85.089844 287.582031 85.371094 C 288.261719 85.652344 288.910156 86 289.523438 86.410156 C 290.136719 86.820312 290.703125 87.285156 291.226562 87.804688 C 291.75 88.328125 292.214844 88.894531 292.625 89.507812 C 293.035156 90.121094 293.378906 90.769531 293.664062 91.453125 C 293.945312 92.132812 294.160156 92.835938 294.300781 93.558594 C 294.445312 94.28125 294.519531 95.011719 294.519531 95.75 Z M 294.519531 95.75 "/>
<path style=" stroke:none;fill-rule:nonzero;fill:rgb(98.039246%,75.689697%,67.449951%);fill-opacity:1;" d="M 323.183594 178.804688 C 323.183594 182.035156 321.949219 185.273438 319.480469 187.746094 L 272.429688 234.789062 L 230.96875 276.253906 C 228.351562 278.863281 225.347656 280.839844 222.136719 282.175781 C 219.992188 283.070312 217.761719 283.675781 215.492188 284.003906 C 206.894531 285.234375 198.847656 289.003906 192.699219 295.144531 L 161.152344 326.6875 L 142.152344 307.695312 L 111.078125 276.625 L 131.425781 256.28125 C 142.878906 244.832031 148.707031 229.082031 148.160156 212.898438 C 147.699219 199.355469 152.644531 185.65625 162.988281 175.3125 L 171.527344 166.777344 L 172.140625 166.160156 L 184.28125 154.019531 L 200.558594 137.75 C 203.027344 135.277344 207.03125 135.277344 209.503906 137.75 C 212.746094 140.992188 214.523438 145.160156 214.832031 149.40625 L 252.066406 112.171875 C 257.007812 107.238281 265.011719 107.238281 269.945312 112.171875 C 272.414062 114.644531 273.652344 117.875 273.652344 121.113281 C 273.652344 124.289062 272.441406 127.46875 270.058594 129.917969 L 270.066406 129.925781 L 277.390625 122.601562 C 282.324219 117.660156 290.335938 117.660156 295.269531 122.601562 C 297.734375 125.058594 298.960938 128.300781 298.960938 131.535156 C 298.960938 134.765625 297.734375 138.003906 295.261719 140.472656 C 300.203125 135.53125 308.207031 135.53125 313.136719 140.464844 C 315.605469 142.9375 316.835938 146.171875 316.835938 149.40625 C 316.839844 152.640625 315.605469 155.871094 313.136719 158.34375 L 301.605469 169.871094 C 306.546875 164.933594 314.542969 164.933594 319.480469 169.867188 C 321.949219 172.335938 323.183594 175.566406 323.183594 178.804688 Z M 323.183594 178.804688 "/>
<path style=" stroke:none;fill-rule:nonzero;fill:rgb(98.429871%,61.569214%,43.139648%);fill-opacity:1;" d="M 222.136719 282.175781 C 219.992188 283.070312 217.761719 283.675781 215.492188 284.003906 C 206.894531 285.230469 198.847656 289.003906 192.699219 295.144531 L 161.152344 326.6875 L 142.152344 307.695312 L 160.691406 289.164062 C 170.253906 279.605469 184.191406 275.710938 197.246094 279.238281 C 205.628906 281.507812 214.769531 282.140625 222.136719 282.175781 Z M 222.136719 282.175781 "/>
<g clip-path="url(#clip5)" clip-rule="nonzero">
<path style=" stroke:none;fill-rule:nonzero;fill:rgb(9.799194%,32.159424%,25.099182%);fill-opacity:1;" d="M 97.730469 285.625 L 115.355469 268.003906 L 170.351562 322.992188 L 152.726562 340.617188 Z M 97.730469 285.625 "/>
</g>
<path style=" stroke:none;fill-rule:nonzero;fill:rgb(44.309998%,74.508667%,65.489197%);fill-opacity:1;" d="M 109.546875 273.8125 L 115.589844 267.769531 L 170.589844 322.757812 L 164.542969 328.800781 Z M 109.546875 273.8125 "/>
<path style=" stroke:none;fill-rule:nonzero;fill:rgb(98.81897%,89.408875%,54.899597%);fill-opacity:1;" d="M 156.878906 329.679688 C 156.878906 330.148438 156.789062 330.597656 156.609375 331.03125 C 156.429688 331.460938 156.175781 331.84375 155.84375 332.175781 C 155.515625 332.503906 155.132812 332.761719 154.699219 332.9375 C 154.269531 333.117188 153.820312 333.207031 153.351562 333.207031 C 152.882812 333.207031 152.433594 333.117188 152 332.9375 C 151.570312 332.761719 151.1875 332.503906 150.855469 332.175781 C 150.527344 331.84375 150.273438 331.460938 150.09375 331.03125 C 149.914062 330.597656 149.824219 330.148438 149.824219 329.679688 C 149.824219 329.214844 149.914062 328.765625 150.09375 328.332031 C 150.273438 327.898438 150.527344 327.519531 150.855469 327.1875 C 151.1875 326.855469 151.570312 326.601562 152 326.421875 C 152.433594 326.246094 152.882812 326.15625 153.351562 326.15625 C 153.820312 326.15625 154.269531 326.246094 154.699219 326.421875 C 155.132812 326.601562 155.515625 326.855469 155.84375 327.1875 C 156.175781 327.519531 156.429688 327.898438 156.609375 328.332031 C 156.789062 328.765625 156.878906 329.214844 156.878906 329.679688 Z M 156.878906 329.679688 "/>
<path style=" stroke:none;fill-rule:nonzero;fill:rgb(98.429871%,61.569214%,43.139648%);fill-opacity:1;" d="M 231.355469 169.300781 C 230.566406 168.527344 230.554688 167.257812 231.332031 166.46875 L 262.78125 134.507812 C 263.554688 133.71875 264.824219 133.710938 265.613281 134.484375 C 266.402344 135.261719 266.410156 136.527344 265.636719 137.316406 L 234.1875 169.277344 C 233.410156 170.066406 232.144531 170.078125 231.355469 169.300781 Z M 231.355469 169.300781 "/>
<path style=" stroke:none;fill-rule:nonzero;fill:rgb(98.429871%,61.569214%,43.139648%);fill-opacity:1;" d="M 184.511719 184 C 183.722656 183.222656 183.710938 181.953125 184.488281 181.164062 L 205.589844 159.695312 C 206.367188 158.90625 207.632812 158.894531 208.421875 159.671875 C 209.210938 160.445312 209.222656 161.714844 208.445312 162.503906 L 187.34375 183.972656 C 186.566406 184.761719 185.300781 184.773438 184.511719 184 Z M 184.511719 184 "/>
<path style=" stroke:none;fill-rule:nonzero;fill:rgb(98.429871%,61.569214%,43.139648%);fill-opacity:1;" d="M 250.523438 186.042969 C 249.734375 185.265625 249.722656 183.996094 250.5 183.207031 L 285.183594 148.078125 C 285.960938 147.289062 287.226562 147.277344 288.015625 148.054688 C 288.804688 148.828125 288.816406 150.097656 288.039062 150.886719 L 253.355469 186.019531 C 252.578125 186.808594 251.3125 186.816406 250.523438 186.042969 Z M 250.523438 186.042969 "/>
<path style=" stroke:none;fill-rule:nonzero;fill:rgb(98.429871%,61.569214%,43.139648%);fill-opacity:1;" d="M 266.808594 205.441406 C 266.019531 204.667969 266.011719 203.398438 266.785156 202.609375 L 298.234375 170.648438 C 299.011719 169.863281 300.277344 169.851562 301.066406 170.625 C 301.855469 171.402344 301.867188 172.671875 301.089844 173.460938 L 269.640625 205.417969 C 268.867188 206.207031 267.597656 206.21875 266.808594 205.441406 Z M 266.808594 205.441406 "/>
</g>
</svg>
